<svg xmlns="http://www.w3.org/2000/svg" viewBox="0 0 820 820" xml:space="preserve">
  <path fill="#FFF" d="M223.77 772.908c-4.96-3.518-9.593-7.25-14.705-11.368-4.98 1.163-11.13-4.269-12.44-10.076-1.1-4.868-3.587-9.997-6.943-13.645-4.783-5.198-6.282-9.274-2.84-15.38.38-.677 1.123-1.41 1.05-2.042-.764-6.516-1.11-13.145-6.451-18.152-.93-.872-.68-3.144-.734-4.778-.076-2.28 1.057-5.57-.058-6.668-3.43-3.376-5.132-10.36-12.618-7.202-1.338.565-3.532-1.335-5.31-1.29-3.736.092-7.454.756-11.185 1.12-5.873.574-11.796 1.772-17.607 1.378-3.426-.232-6.824-2.787-9.974-4.721-5.106-3.134-10.244-6.315-14.87-10.088-2.04-1.665-2.896-4.808-4.215-7.32-.653-1.245-1.145-2.576-1.694-3.876-1.76-4.17-3.525-8.337-5.248-12.522-.18-.436.094-1.263-.16-1.433-6.197-4.138-2.523-10.143-2.94-15.353-.365-4.585-.517-9.19-1.037-13.756-.127-1.114-1.105-2.693-2.07-3.057-5.843-2.206-5.983-7.357-6.86-12.26-.435-2.427-1.298-4.778-1.692-6.182.827-5.223 1.721-9.832 2.177-14.484.11-1.137-1.202-3.447-1.884-3.456-3.798-.051-3.417-2.437-3.746-5.05-.785-6.22 1.075-10.584 7.176-12.991 1.462-.577 2.543-2.237 3.672-3.51 1.241-1.402 2.035-3.506 3.55-4.303 5.147-2.708 8.272-5.884 5.826-12.267-.46-1.203 1.445-3.151 1.768-4.849.68-3.568 1.665-6.67.01-10.895-1.501-3.833 1.24-9.257 1.833-14.014.257-2.058-.218-4.201-.296-6.309-.04-1.077-.17-2.234.143-3.229 1.892-6.02-.559-11.152-5.733-15.196-1.917-1.498-2.024-5.38-2.804-8.218-.196-.714.524-2.161.27-2.306-5.62-3.217-2.48-9.164-4.343-13.479-.95-2.2-2.999-3.954-3.808-6.18-1.478-4.064.48-7.176 3.727-9.63 2.725-2.06 3.487-8.742 1.07-11.377 6.68-4.274 4.876-9.725 1.828-15.177-1.63-2.916-3.697-5.586-5.377-8.478-.963-1.659-2.247-3.568-2.175-5.314.264-6.362-3.23-10.476-6.661-15.35-2.458-3.49-1.425-9.417-2.03-14.246-.203-1.629-.597-3.24-.999-4.835-.465-1.848-.86-3.745-1.607-5.482-.825-1.919-1.574-4.588-3.128-5.343-4.934-2.4-8.595-5.155-7.512-11.356.077-.44-.167-.99-.39-1.422-2.41-4.69-4.79-9.363.613-13.7l-5.86-12.943c.931-3.843 2.132-8.56 3.203-13.307.587-2.6.577-5.392 1.494-7.851 2.538-6.807 4.333-13.364 4.466-21.01.103-5.855-4.613-8.142-4.876-12.83-.159-2.818-.645-5.624-1.094-8.418-.172-1.07-.378-2.324-1.038-3.09-3.203-3.722-3.778-9.742-1.12-13.684 3.268-4.846 2.88-7.836-1.886-11.842 4.193-5.254 8.423-10.507 12.595-15.805 2.023-2.569 4.252-5.046 5.837-7.873 3.274-5.84 1.1-10.503-5.448-13.162-1.158-.47-2.55-2.165-2.572-3.317-.083-4.593-3.02-7.25-5.686-10.388-2.004-2.357-3.168-5.499-4.41-8.418-1.594-3.75-3.07-7.574-4.254-11.471-.74-2.434-.356-5.271-1.34-7.556-1.988-4.618-4.675-8.931-6.823-13.488-.56-1.185-.746-3.097-.168-4.175 3.341-6.243 7.088-12.27 10.404-18.525.873-1.647.69-3.847 1.023-5.788.192-1.116.341-2.255.684-3.328 3.191-9.999 6.421-19.986 9.64-29.977.29-.904.307-2.304.912-2.638 7.71-4.251 13.152-12.561 22.932-13.063 4.15-.213 8.32-.06 12.48-.077 7-.027 14-.01 20.997-.1 5.171-.068 10.09-.798 15.51.706 5.739 1.592 12.302.139 18.505.145 7.125.007 14.253.346 21.372.193 8.59-.186 17.168-.894 25.758-1.09 11.307-.257 22.62-.317 33.93-.304 7.073.008 14.145.38 21.22.456 10.674.115 21.356-.084 32.023.23 7.298.216 14.569 1.31 21.866 1.544 3.221.103 6.468-1.04 9.723-1.462 2.497-.323 4.667-1.004 7.076 1.706 1.424 1.602 5.554 1.092 8.452 1.003 2.504-.076 4.968-1.188 7.48-1.333 5.7-.328 11.42-.504 17.127-.405 2.319.04 4.623.952 6.931 1.478.312.071.716.385.9.28 5.829-3.381 12.82 3.057 18.457-2.183.511-.475 1.647-.773 2.281-.55 10.027 3.517 20.353 1.2 30.527 1.726 2.568.133 5.24.618 7.62 1.559 4.907 1.941 9.026 1.531 14.065-.736 4.052-1.823 9.685-1.357 14.32-.428 13.698 2.747 27.31 2.796 41.21 1.896 7.456-.482 15.214-2.112 22.849.365 2.596.842 5.685.086 8.538.243 1.619.088 3.217.546 5.819 1.019 1.924 0 4.98.024 8.035-.005 10.502-.1 21.16 1.66 31.323-2.584.29-.12.765-.234.957-.09 7.15 5.41 15.33 1.441 22.96 2.479 5.306.721 10.727.568 16.055 1.168 2.466.277 4.834 1.42 8.327 2.507 2.905-1.631 7.01-3.6 11.348.577.884.851 2.75.777 4.184.945 7.044.825 9.34 3.502 8.93 10.537-.583 10.015 10.207 17.724 17.4 14.784 7.975 2.208 14.247 3.891 20.479 5.71 1.434.42 3.538.993 3.945 2.037 1.418 3.633 3.643 2.211 5.537 1.123 3.732-2.145 7.279-2.033 9.496 1.588 2.43 3.97 6.118 6.703 8.118 11.54 1.733 4.193 5.586 9.77 10.244 12.441 8.657 4.963 12.385 16.358 7.07 24.584-.62.96-1.37 2.315-1.142 3.267 2.107 8.809 2.667 17.629 1.136 26.599-.34 1.991-.33 4.289.383 6.106.345.879 2.812 1.576 4.115 1.319 6.675-1.317 8.766-.63 12.185 5.274 3.28 5.666 6.22 11.53 9.56 17.159 1.508 2.542 4.369 4.464 5.297 7.127 1.66 4.767 2.228 9.854-4.452 12.34 5.004 6.76 4.36 12.97.543 19.173-.32.52-.338 1.599-.009 2.093 3.835 5.76 2.844 11.675-.048 17.18-3.812 7.257-4.784 15.053-5.863 22.935-.218 1.596-1.286 3.824-2.57 4.395-4.863 2.165-4.352 6.634-5.599 10.575-1.517 4.794-3.393 9.69-6.19 13.812-3.842 5.66-4.52 8.93-.635 14.788 2.872 4.33 5.59 8.275 3.28 14.18-1.259 3.22-.056 6.857 4.39 8.718 2.342.98 3.401 4.678 5.656 6.285 4.341 3.096 4.337 6.004 1.57 10.251-2.062 3.165-3.003 7.06-4.578 10.964-6.017 1.1-5.946 1.074-3.56 7.693.485 1.345.378 2.977.256 4.453-.402 4.87-.453 4.865 2.964 7.813-1.681 2.517-3.385 5.023-4.97 7.603-.06.099 1.026.902 1.56 1.363-2.842 4.28-4.255 8.733-1.877 13.829.35.75-.262 2.065-.659 3.023-.554 1.341-1.768 2.544-1.92 3.893-.532 4.75-1.69 8.01-7.769 7.288-2.921-.347-5.057 5.973-3.673 9.672 2.283 6.104.94 9.66-4.715 13.398-1.753 1.158-3.146 2.862-5.064 4.651.858 1.26 1.927 2.678 2.834 4.193 2.375 3.967.58 6.923-2.22 9.86-2.071 2.174-4.05 4.585-5.413 7.228-.747 1.448-.134 3.598-.493 5.274-.858 3.982-2.525 7.99-2.398 11.94.23 7.164-3.471 12.356-5.965 17.939-.235 2.537-.46 5.076-.713 7.612-.078.777-.616 1.877-.284 2.264 2.145 2.5.436 4.625-.269 6.991-1.964 6.594 1.417 12.848 7.9 15.807 2.934 1.338 5.683 3.194 8.251 5.16.868.664.955 2.379 1.342 3.631.393 1.277.337 3.049 1.181 3.725.766.613 2.66.426 3.74-.081 2.932-1.377 4.335-.05 5.608 2.367 2.097 3.98 4.4 7.85 6.527 11.813.66 1.23 1.859 3.132 1.41 3.843-3.118 4.94 1.54 9.073 1.125 13.661-.05.548.356 1.394.816 1.692 5.536 3.58 2.892 7.893 1.355 12.284-.76 2.174-.724 4.616-1.192 6.908-.31 1.516-.4 3.674-1.4 4.358-9.205 6.288-.293 11.874.54 17.722.108.76.71 1.448 1.18 2.356h5.077c1.135 4.19 2.96 8.31 3.086 12.481.065 2.14-2.907 4.372-3.899 6.686-.593 1.374-1.15 2.765-1.786 4.12-.996 2.122-1.99 4.249-3.083 6.322-1.915 3.63-3.655 7.39-5.935 10.78-2.124 3.16-6.262 5.524-2.277 10.084.435.497.028 2.605-.612 3.032-5.708 3.814-4.468 9.937-5.384 15.346-.17 1.004-.315 2.762-.75 2.854-4.031.85-5.815 3.929-7.884 6.985-1.902 2.811-6.667 1.981-10.15-1.456-5.144-5.076-5.074-5.002-10.037-.237-.883.847-3.118 1.545-3.896 1.037-4.92-3.21-10.16-1.974-15.457-2.22-4.411-.205-8.708-3.025-13.037-4.736-.89-.352-2.19-1.525-2.464-1.3-6.213 5.105-13.063-.635-19.676.926-1.174-1.717-1.283-6.209-5.703-1.985-1.242 1.187-4.953-.21-8.173-.474-.289.195-1.653 1.792-2.515 1.556-2.112-.58-4.192-1.764-5.896-3.175-1.122-.928-1.414-2.788-2.344-4.03-3.662-4.892-5.49-5-11.02-2.506-2.57 1.16-5.725 1.023-8.615 1.473l-1.281-1.382c-.155 2.432-1.41 5.937-.271 7.105 4.343 4.452.052 8.671.346 12.92.52 7.508-3.775 14.96.769 22.832 1.036 1.795-2.982 6.978-5.324 10.116-2.278 3.054-5.597 5.31-8.08 8.239-2.825 3.331-6.173 3.803-10.327 4.71-6.514 1.423-14.556-3.649-19.72 4.51-2.39-2.712-4.234-7.127-8.212-1.558-1.008 1.412-5.864 1.943-7.35.8-4.575-3.523-9.352-.505-13.84-1.563-1.938-.456-3.902-1.002-5.688-1.855-3.544-1.694-6.014-.769-7.49 2.874-7.27-7.206-18.209-7.362-22.698-.57-3.532-.151-7.334-1.964-10.14 2.141-.359.524-3.03.045-4.166-.688-1.406-.907-2.327-2.564-3.458-3.898-3.91 4.812-6.688 4.89-11.335.855-1.118-.97-3.428-1.592-4.752-1.127-5.933 2.082-10.27-1.107-14.797-3.862-2.965-1.804-14.455-1.201-17.327.968-5.332-4.37-9.88-4.088-12.623-.038l-12.416-2.105-5.998 6.391-6.812-5.83c-2.624 1.095-4.616 4.035-8.716 1.315-2.009-1.332-6.316.699-9.554 1.355-2.327.471-4.616 1.69-6.902 1.641-2.02-.042-4.82.805-5.867-2.686-.512-1.711-2.342-3.478-4.285-.348-.518.834-2.918 1.264-4.034.822-3.354-1.33-6.097-1.443-9.764-.043-2.815 1.074-7.028-.262-10.168-1.592-4.417-1.87-8.555-1.416-13.133-1.26-6.668.228-11.444 5.78-18.469 4.834-6.963-.938-13.107-3.15-17.956-6.37-4.795.794-8.929 1.45-13.05 2.18-.935.166-2.108.32-2.69.935-4.482 4.724-7.772 2.743-11.813-1.053-2.146-2.015-5.69-1.421-5.929 2.123-4.433 0-8.459.03-12.483-.01-2.867-.029-6.091.397-5.37-5.93-2.107 2.466-2.934 3.433-4.089 4.615z"/>
</svg>
